# xmcd
#
# Track frame offsets: 
#        150
#        12178
#        21466
#        35375
#        46818
#        59787
#        75674
#        91439
#        107968
#        122659
#        136604
#        151723
#        164139
#        178206
#        193697
#
# Disc length: 2757 seconds
#
# Revision: 0
# Processed by: cddbd v1.5.2PL0 Copyright (c) Steve Scherf et al.
# Submitted via: ExactAudioCopy v0.99pb5
#
DISCID=c80ac30f
DTITLE=Willie Nelson - More Best [CD01)
DYEAR=2001
DGENRE=Country
TTITLE0=Ten With A Two
TTITLE1=Something To Brag About (with Mary Kay Place)
TTITLE2=Ain't Necessarily So
TTITLE3=Mona Lisa
TTITLE4=Twilight Time
TTITLE5=Reasons To Quit (with Merle Haggard)
TTITLE6=If I Can Find A Clean Shirt (with Waylon Jennings)
TTITLE7=Don't You Ever Get Tired (Of Hurting Me) (with Ray Price)
TTITLE8=Everythings Beautiful (In It's Own Way) (with Dolly Parton)
TTITLE9=There You Are
TTITLE10=Lily Dale (with Darrell McCall)
TTITLE11=How Do You Feel About Foolin' Around (with Kris Kristofferson
TTITLE11=)
TTITLE12=Old Friends (with Roger Miller and Ray Price)
TTITLE13=I'd Have To Be Crazy
TTITLE14=You're Gonna Love Yourself (In The Morning) (with Brenda Lee)
EXTD=
EXTT0=
EXTT1=
EXTT2=
EXTT3=
EXTT4=
EXTT5=
EXTT6=
EXTT7=
EXTT8=
EXTT9=
EXTT10=
EXTT11=
EXTT12=
EXTT13=
EXTT14=
PLAYORDER=
